<svg width="15" height="15" viewBox="0 0 15 15" fill="none" xmlns="http://www.w3.org/2000/svg">
<path d="M3.13238 4.037H11.3936H11.394V4.287L3.13238 4.037ZM3.13238 4.037L5.05871 2.11067L5.05909 2.11029C5.20834 1.96041 5.29193 1.75737 5.29148 1.54585C5.29104 1.33433 5.20658 1.13165 5.05669 0.9824C4.90681 0.833149 4.70377 0.749553 4.49225 0.750002C4.28081 0.75045 4.0782 0.834844 3.92897 0.984625C3.92891 0.98468 3.92886 0.984736 3.9288 0.984791L1.22038 3.69267L1.22034 3.69271C0.916992 3.99615 0.746582 4.40764 0.746582 4.8367C0.746582 5.26576 0.916992 5.67725 1.22034 5.98069L1.22035 5.9807L3.92893 8.68983C3.92899 8.68989 3.92905 8.68995 3.92912 8.69001L3.92916 8.69006L4.10595 8.5133M3.13238 4.037L3.12611 5.63147H2.77243L4.88193 7.73951C4.93274 7.79046 4.97302 7.85092 5.00046 7.91744C5.0279 7.98395 5.04197 8.05522 5.04187 8.12718C5.04177 8.19913 5.0275 8.27036 4.99987 8.3368C4.97224 8.40324 4.93179 8.46359 4.88084 8.51439C4.82989 8.5652 4.76943 8.60548 4.70291 8.63292C4.6364 8.66036 4.56513 8.67443 4.49317 8.67433C4.42122 8.67423 4.34999 8.65996 4.28355 8.63233C4.21711 8.6047 4.15676 8.56425 4.10595 8.5133M4.10595 8.5133L1.39714 5.80394C1.14066 5.54738 0.996582 5.19947 0.996582 4.8367C0.996582 4.47393 1.14066 4.12601 1.39714 3.86946M4.10595 8.5133L1.39714 3.86946M1.39714 3.86946L4.10595 1.16119C4.20842 1.05829 4.34757 1.00031 4.49278 1C4.638 0.999693 4.77739 1.05709 4.88029 1.15955C4.98319 1.26202 5.04118 1.40116 5.04148 1.54638C5.04179 1.6916 4.9844 1.83099 4.88193 1.93389L1.39714 3.86946Z" fill="#ECECEC" stroke="#ECECEC" stroke-width="0.5"/>
</svg>
