<svg width="13" height="13" viewBox="0 0 13 13" fill="none" xmlns="http://www.w3.org/2000/svg">
<path d="M12.2967 0.292787C12.1092 0.105316 11.8549 0 11.5897 0C11.3245 0 11.0702 0.105316 10.8827 0.292787L6.29669 4.87879L1.71069 0.292787C1.52317 0.105316 1.26886 0 1.00369 0C0.738529 0 0.484221 0.105316 0.296693 0.292787C0.109222 0.480314 0.00390625 0.734622 0.00390625 0.999786C0.00390625 1.26495 0.109222 1.51926 0.296693 1.70679L4.88269 6.29279L0.296693 10.8788C0.109222 11.0663 0.00390625 11.3206 0.00390625 11.5858C0.00390625 11.851 0.109222 12.1053 0.296693 12.2928C0.484221 12.4803 0.738529 12.5856 1.00369 12.5856C1.26886 12.5856 1.52317 12.4803 1.71069 12.2928L6.29669 7.70679L10.8827 12.2928C11.0702 12.4803 11.3245 12.5856 11.5897 12.5856C11.8549 12.5856 12.1092 12.4803 12.2967 12.2928C12.4842 12.1053 12.5895 11.851 12.5895 11.5858C12.5895 11.3206 12.4842 11.0663 12.2967 10.8788L7.71069 6.29279L12.2967 1.70679C12.4842 1.51926 12.5895 1.26495 12.5895 0.999786C12.5895 0.734622 12.4842 0.480314 12.2967 0.292787Z" fill="#ECECEC"/>
</svg>
