<svg width="15" height="15" viewBox="0 0 15 15" fill="none" xmlns="http://www.w3.org/2000/svg">
<path d="M7.49902 0C5.65246 0.00131648 3.8716 0.685389 2.49902 1.92062V0.625C2.49902 0.45924 2.43318 0.300268 2.31596 0.183058C2.19875 0.065848 2.03978 0 1.87402 0C1.70826 0 1.54929 0.065848 1.43208 0.183058C1.31487 0.300268 1.24902 0.45924 1.24902 0.625V2.5C1.24902 2.99728 1.44657 3.47419 1.7982 3.82582C2.14983 4.17745 2.62674 4.375 3.12402 4.375H4.99902C5.16478 4.375 5.32375 4.30915 5.44096 4.19194C5.55817 4.07473 5.62402 3.91576 5.62402 3.75C5.62402 3.58424 5.55817 3.42527 5.44096 3.30806C5.32375 3.19085 5.16478 3.125 4.99902 3.125H3.12402C3.10295 3.12188 3.08208 3.11749 3.06152 3.11187C4.07997 2.08614 5.42285 1.44567 6.86094 1.29979C8.29902 1.15391 9.74316 1.51166 10.9468 2.31198C12.1505 3.11229 13.0392 4.30556 13.461 5.68809C13.8829 7.07063 13.8118 8.55672 13.26 9.89271C12.7082 11.2287 11.7098 12.3317 10.4352 13.0136C9.1607 13.6954 7.68902 13.9138 6.27141 13.6314C4.8538 13.349 3.57814 12.5833 2.66218 11.4651C1.74623 10.3469 1.24675 8.94546 1.24902 7.5C1.24902 7.33424 1.18318 7.17527 1.06597 7.05806C0.948755 6.94085 0.789784 6.875 0.624023 6.875C0.458263 6.875 0.299292 6.94085 0.182082 7.05806C0.0648715 7.17527 -0.000976562 7.33424 -0.000976562 7.5C-0.000976562 8.98336 0.438891 10.4334 1.263 11.6668C2.08711 12.9001 3.25845 13.8614 4.6289 14.4291C5.99934 14.9968 7.50734 15.1453 8.9622 14.8559C10.4171 14.5665 11.7534 13.8522 12.8023 12.8033C13.8512 11.7544 14.5655 10.418 14.8549 8.96318C15.1443 7.50832 14.9958 6.00032 14.4281 4.62987C13.8605 3.25943 12.8992 2.08809 11.6658 1.26398C10.4324 0.439867 8.98238 0 7.49902 0V0Z" fill="#989898"/>
<path d="M7.49902 3.75C7.33326 3.75 7.17429 3.81585 7.05708 3.93306C6.93987 4.05027 6.87402 4.20924 6.87402 4.375V7.5C6.87406 7.66575 6.93993 7.82469 7.05715 7.94187L8.93215 9.81687C9.05002 9.93072 9.2079 9.99372 9.37177 9.9923C9.53565 9.99087 9.6924 9.92514 9.80828 9.80926C9.92416 9.69338 9.98989 9.53662 9.99132 9.37275C9.99274 9.20888 9.92975 9.051 9.8159 8.93312L8.12402 7.24125V4.375C8.12402 4.20924 8.05817 4.05027 7.94096 3.93306C7.82375 3.81585 7.66478 3.75 7.49902 3.75Z" fill="#989898"/>
</svg>
