<svg width="85" height="18" viewBox="0 0 85 18" fill="none" xmlns="http://www.w3.org/2000/svg">
<path d="M20.4659 3.81818V14H19.233V3.81818H20.4659ZM23.9522 9.40625V14H22.7789V6.36364H23.9125V7.55682H24.0119C24.1909 7.16903 24.4627 6.85748 24.8272 6.62216C25.1918 6.38352 25.6625 6.2642 26.2392 6.2642C26.7562 6.2642 27.2086 6.37027 27.5964 6.58239C27.9842 6.79119 28.2858 7.10938 28.5012 7.53693C28.7167 7.96117 28.8244 8.49811 28.8244 9.14773V14H27.6511V9.22727C27.6511 8.62737 27.4953 8.16004 27.1838 7.82528C26.8722 7.48722 26.4447 7.31818 25.9011 7.31818C25.5266 7.31818 25.1918 7.39938 24.8968 7.56179C24.6052 7.72419 24.3748 7.96117 24.2058 8.27273C24.0368 8.58428 23.9522 8.96212 23.9522 9.40625ZM36.3775 8.07386L35.3235 8.37216C35.2572 8.1965 35.1594 8.0258 35.0302 7.86009C34.9042 7.69105 34.7319 7.55185 34.5131 7.44247C34.2944 7.3331 34.0143 7.27841 33.6729 7.27841C33.2056 7.27841 32.8162 7.38613 32.5046 7.60156C32.1964 7.81368 32.0423 8.08381 32.0423 8.41193C32.0423 8.7036 32.1483 8.93395 32.3604 9.10298C32.5726 9.27202 32.904 9.41288 33.3548 9.52557L34.4883 9.80398C35.171 9.9697 35.6798 10.2232 36.0146 10.5646C36.3493 10.9027 36.5167 11.3385 36.5167 11.8722C36.5167 12.3097 36.3907 12.7008 36.1388 13.0455C35.8903 13.3902 35.5423 13.6619 35.0948 13.8608C34.6474 14.0597 34.127 14.1591 33.5337 14.1591C32.7549 14.1591 32.1102 13.9901 31.5998 13.652C31.0894 13.3139 30.7662 12.8201 30.6303 12.1705L31.744 11.892C31.85 12.303 32.0505 12.6113 32.3455 12.8168C32.6438 13.0223 33.0333 13.125 33.5138 13.125C34.0607 13.125 34.4949 13.009 34.8164 12.777C35.1412 12.5417 35.3036 12.2599 35.3036 11.9318C35.3036 11.6667 35.2108 11.4446 35.0252 11.2656C34.8396 11.0833 34.5546 10.9474 34.1701 10.858L32.8974 10.5597C32.198 10.3939 31.6843 10.1371 31.3562 9.78906C31.0314 9.43774 30.869 8.99858 30.869 8.47159C30.869 8.04072 30.9899 7.65956 31.2319 7.32812C31.4772 6.99669 31.8103 6.73651 32.2312 6.54758C32.6554 6.35866 33.136 6.2642 33.6729 6.2642C34.4286 6.2642 35.0219 6.42992 35.4528 6.76136C35.887 7.0928 36.1952 7.5303 36.3775 8.07386ZM38.2828 14V6.36364H39.4164V7.51705H39.4959C39.6351 7.1392 39.887 6.83262 40.2516 6.5973C40.6162 6.36198 41.0272 6.24432 41.4846 6.24432C41.5707 6.24432 41.6784 6.24597 41.8077 6.24929C41.937 6.2526 42.0347 6.25758 42.101 6.2642V7.45739C42.0613 7.44744 41.9701 7.43253 41.8276 7.41264C41.6884 7.38944 41.5409 7.37784 41.3851 7.37784C41.0139 7.37784 40.6825 7.45573 40.3908 7.61151C40.1025 7.76397 39.8738 7.97609 39.7047 8.24787C39.539 8.51634 39.4561 8.82292 39.4561 9.16761V14H38.2828ZM45.739 14.179C45.2551 14.179 44.8159 14.0878 44.4215 13.9055C44.0271 13.7199 43.7139 13.4531 43.4819 13.1051C43.2499 12.7538 43.1339 12.3295 43.1339 11.8324C43.1339 11.3949 43.2201 11.0402 43.3924 10.7685C43.5647 10.4934 43.7951 10.2779 44.0835 10.1222C44.3718 9.96638 44.69 9.85038 45.038 9.77415C45.3893 9.6946 45.7423 9.63163 46.0969 9.58523C46.561 9.52557 46.9371 9.48082 47.2255 9.45099C47.5172 9.41785 47.7293 9.36316 47.8619 9.28693C47.9978 9.2107 48.0657 9.07812 48.0657 8.8892V8.84943C48.0657 8.3589 47.9315 7.97775 47.663 7.70597C47.3978 7.43419 46.9951 7.2983 46.4549 7.2983C45.8948 7.2983 45.4556 7.42093 45.1374 7.66619C44.8192 7.91146 44.5955 8.1733 44.4663 8.4517L43.3526 8.05398C43.5515 7.58996 43.8166 7.22869 44.1481 6.97017C44.4828 6.70833 44.8474 6.52604 45.2418 6.4233C45.6396 6.31723 46.0307 6.2642 46.4151 6.2642C46.6604 6.2642 46.9421 6.29403 47.2603 6.35369C47.5818 6.41004 47.8917 6.5277 48.19 6.70668C48.4916 6.88565 48.7418 7.15578 48.9407 7.51705C49.1396 7.87831 49.239 8.36222 49.239 8.96875V14H48.0657V12.9659H48.006C47.9265 13.1316 47.7939 13.3089 47.6083 13.4979C47.4227 13.6868 47.1758 13.8475 46.8675 13.9801C46.5593 14.1127 46.1831 14.179 45.739 14.179ZM45.918 13.125C46.382 13.125 46.7731 13.0339 47.0913 12.8516C47.4128 12.6693 47.6547 12.4339 47.8171 12.1456C47.9828 11.8572 48.0657 11.554 48.0657 11.2358V10.1619C48.016 10.2216 47.9066 10.2763 47.7376 10.326C47.5719 10.3724 47.3796 10.4138 47.1609 10.4503C46.9454 10.4834 46.735 10.5133 46.5295 10.5398C46.3273 10.563 46.1632 10.5829 46.0373 10.5994C45.7324 10.6392 45.4473 10.7038 45.1822 10.7933C44.9203 10.8795 44.7082 11.0104 44.5458 11.1861C44.3867 11.3584 44.3072 11.5937 44.3072 11.892C44.3072 12.2997 44.458 12.608 44.7596 12.8168C45.0645 13.0223 45.4506 13.125 45.918 13.125ZM54.4629 17.0227C53.8961 17.0227 53.4089 16.9498 53.0012 16.804C52.5936 16.6615 52.2538 16.4725 51.9821 16.2372C51.7136 16.0052 51.4998 15.7566 51.3407 15.4915L52.2754 14.8352C52.3815 14.9744 52.5157 15.1335 52.6781 15.3125C52.8405 15.4948 53.0626 15.6522 53.3443 15.7848C53.6293 15.9207 54.0022 15.9886 54.4629 15.9886C55.0794 15.9886 55.5881 15.8395 55.9892 15.5412C56.3902 15.2429 56.5907 14.7756 56.5907 14.1392V12.5881H56.4913C56.4051 12.7273 56.2825 12.8996 56.1234 13.1051C55.9676 13.3073 55.7422 13.4879 55.4473 13.647C55.1556 13.8028 54.7612 13.8807 54.264 13.8807C53.6475 13.8807 53.094 13.7348 52.6035 13.4432C52.1163 13.1515 51.7302 12.7273 51.4451 12.1705C51.1634 11.6136 51.0225 10.9375 51.0225 10.142C51.0225 9.35985 51.1601 8.67874 51.4352 8.09872C51.7103 7.51539 52.0931 7.06463 52.5836 6.74645C53.0742 6.42495 53.6409 6.2642 54.2839 6.2642C54.7811 6.2642 55.1755 6.34706 55.4672 6.51278C55.7621 6.67519 55.9875 6.8608 56.1433 7.0696C56.3024 7.27509 56.425 7.44413 56.5112 7.5767H56.6305V6.36364H57.764V14.2188C57.764 14.875 57.6149 15.4086 57.3166 15.8196C57.0216 16.2339 56.6239 16.5372 56.1234 16.7294C55.6262 16.925 55.0727 17.0227 54.4629 17.0227ZM54.4231 12.8267C54.8938 12.8267 55.2915 12.719 55.6163 12.5036C55.9411 12.2881 56.188 11.9782 56.3571 11.5739C56.5261 11.1695 56.6106 10.6856 56.6106 10.1222C56.6106 9.57197 56.5278 9.08641 56.362 8.66548C56.1963 8.24455 55.9511 7.91477 55.6262 7.67614C55.3014 7.4375 54.9004 7.31818 54.4231 7.31818C53.926 7.31818 53.5117 7.44413 53.1802 7.69602C52.8521 7.94792 52.6052 8.28598 52.4395 8.71023C52.277 9.13447 52.1958 9.60511 52.1958 10.1222C52.1958 10.6525 52.2787 11.1214 52.4444 11.5291C52.6135 11.9335 52.862 12.2517 53.1902 12.4837C53.5216 12.7124 53.9326 12.8267 54.4231 12.8267ZM59.9118 14V6.36364H61.0453V7.51705H61.1248C61.264 7.1392 61.5159 6.83262 61.8805 6.5973C62.2451 6.36198 62.6561 6.24432 63.1135 6.24432C63.1996 6.24432 63.3074 6.24597 63.4366 6.24929C63.5659 6.2526 63.6636 6.25758 63.7299 6.2642V7.45739C63.6902 7.44744 63.599 7.43253 63.4565 7.41264C63.3173 7.38944 63.1698 7.37784 63.014 7.37784C62.6428 7.37784 62.3114 7.45573 62.0197 7.61151C61.7314 7.76397 61.5027 7.97609 61.3336 8.24787C61.1679 8.51634 61.085 8.82292 61.085 9.16761V14H59.9118ZM67.3679 14.179C66.884 14.179 66.4448 14.0878 66.0504 13.9055C65.656 13.7199 65.3428 13.4531 65.1108 13.1051C64.8788 12.7538 64.7628 12.3295 64.7628 11.8324C64.7628 11.3949 64.849 11.0402 65.0213 10.7685C65.1937 10.4934 65.424 10.2779 65.7124 10.1222C66.0007 9.96638 66.3189 9.85038 66.6669 9.77415C67.0182 9.6946 67.3712 9.63163 67.7259 9.58523C68.1899 9.52557 68.5661 9.48082 68.8544 9.45099C69.1461 9.41785 69.3582 9.36316 69.4908 9.28693C69.6267 9.2107 69.6946 9.07812 69.6946 8.8892V8.84943C69.6946 8.3589 69.5604 7.97775 69.2919 7.70597C69.0268 7.43419 68.6241 7.2983 68.0838 7.2983C67.5237 7.2983 67.0845 7.42093 66.7663 7.66619C66.4482 7.91146 66.2244 8.1733 66.0952 8.4517L64.9815 8.05398C65.1804 7.58996 65.4455 7.22869 65.777 6.97017C66.1117 6.70833 66.4763 6.52604 66.8707 6.4233C67.2685 6.31723 67.6596 6.2642 68.044 6.2642C68.2893 6.2642 68.571 6.29403 68.8892 6.35369C69.2107 6.41004 69.5206 6.5277 69.8189 6.70668C70.1205 6.88565 70.3707 7.15578 70.5696 7.51705C70.7685 7.87831 70.8679 8.36222 70.8679 8.96875V14H69.6946V12.9659H69.6349C69.5554 13.1316 69.4228 13.3089 69.2372 13.4979C69.0516 13.6868 68.8047 13.8475 68.4964 13.9801C68.1882 14.1127 67.812 14.179 67.3679 14.179ZM67.5469 13.125C68.0109 13.125 68.402 13.0339 68.7202 12.8516C69.0417 12.6693 69.2836 12.4339 69.446 12.1456C69.6117 11.8572 69.6946 11.554 69.6946 11.2358V10.1619C69.6449 10.2216 69.5355 10.2763 69.3665 10.326C69.2008 10.3724 69.0085 10.4138 68.7898 10.4503C68.5743 10.4834 68.3639 10.5133 68.1584 10.5398C67.9562 10.563 67.7921 10.5829 67.6662 10.5994C67.3613 10.6392 67.0762 10.7038 66.8111 10.7933C66.5492 10.8795 66.3371 11.0104 66.1747 11.1861C66.0156 11.3584 65.9361 11.5937 65.9361 11.892C65.9361 12.2997 66.0869 12.608 66.3885 12.8168C66.6934 13.0223 67.0795 13.125 67.5469 13.125ZM73.0094 14V6.36364H74.1429V7.55682H74.2424C74.4015 7.14915 74.6583 6.83262 75.013 6.60724C75.3676 6.37855 75.7935 6.2642 76.2907 6.2642C76.7944 6.2642 77.2137 6.37855 77.5485 6.60724C77.8865 6.83262 78.15 7.14915 78.339 7.55682H78.4185C78.6141 7.16241 78.9074 6.84919 79.2985 6.61719C79.6896 6.38187 80.1586 6.2642 80.7054 6.2642C81.3882 6.2642 81.9467 6.47798 82.3809 6.90554C82.815 7.32978 83.0321 7.991 83.0321 8.8892V14H81.8588V8.8892C81.8588 8.32576 81.7047 7.92306 81.3965 7.68111C81.0882 7.43916 80.7253 7.31818 80.3077 7.31818C79.7708 7.31818 79.3548 7.48059 79.0598 7.8054C78.7649 8.12689 78.6174 8.53456 78.6174 9.02841V14H77.4242V8.76989C77.4242 8.3357 77.2833 7.98603 77.0016 7.72088C76.7199 7.45241 76.3569 7.31818 75.9128 7.31818C75.6079 7.31818 75.3229 7.39938 75.0577 7.56179C74.7959 7.72419 74.5837 7.94957 74.4213 8.23793C74.2623 8.52296 74.1827 8.85275 74.1827 9.22727V14H73.0094Z" fill="#989898"/>
<path d="M6.00001 4.0811C7.60209 4.0811 7.79184 4.08722 8.42459 4.11609C9.00958 4.14279 9.32725 4.24051 9.5387 4.32268C9.79931 4.41886 10.035 4.57223 10.2286 4.77151C10.4279 4.96505 10.5812 5.20079 10.6774 5.4614C10.7596 5.67282 10.8573 5.99052 10.884 6.57551C10.9129 7.20821 10.919 7.39796 10.919 9.00008C10.919 10.6022 10.9129 10.7919 10.884 11.4247C10.8573 12.0097 10.7596 12.3273 10.6774 12.5388C10.5776 12.7975 10.4247 13.0325 10.2286 13.2287C10.0325 13.4248 9.79747 13.5777 9.5387 13.6775C9.32728 13.7597 9.00958 13.8574 8.42459 13.8841C7.79201 13.9129 7.60226 13.9191 6.00001 13.9191C4.39777 13.9191 4.20809 13.9129 3.57544 13.8841C2.99044 13.8574 2.67277 13.7596 2.46132 13.6775C2.20072 13.5813 1.96498 13.4279 1.77144 13.2287C1.57216 13.0351 1.41879 12.7994 1.32261 12.5388C1.24044 12.3273 1.14269 12.0097 1.11602 11.4247C1.08715 10.792 1.08103 10.6022 1.08103 9.00008C1.08103 7.39796 1.08715 7.20826 1.11602 6.57551C1.14272 5.99052 1.24044 5.67284 1.32261 5.4614C1.4188 5.20077 1.57219 4.96503 1.77149 4.77149C1.96503 4.57221 2.20076 4.41884 2.46137 4.32266C2.6728 4.24049 2.99049 4.14274 3.57549 4.11607C4.20819 4.0872 4.39794 4.08108 6.00006 4.08108M6.00006 3C4.37055 3 4.16615 3.00691 3.52628 3.03611C2.88763 3.06526 2.45149 3.16667 2.06984 3.315C1.66949 3.46566 1.30682 3.70184 1.00713 4.00706C0.701838 4.30673 0.465599 4.6694 0.314885 5.06977C0.166672 5.45144 0.0652587 5.88758 0.0362257 6.52623C0.00690694 7.1661 0 7.3705 0 9.00001C0 10.6295 0.00690694 10.8339 0.0362257 11.4738C0.0653778 12.1124 0.166791 12.5486 0.315123 12.9302C0.465782 13.3306 0.701955 13.6932 1.00718 13.9929C1.30687 14.2982 1.66954 14.5343 2.06989 14.685C2.45156 14.8333 2.8877 14.9347 3.52633 14.9639C4.16629 14.9931 4.37062 15 6.00011 15C7.6296 15 7.83402 14.9931 8.47389 14.9639C9.11254 14.9347 9.54868 14.8333 9.93032 14.685C10.3289 14.5308 10.6909 14.2951 10.993 13.9929C11.2952 13.6908 11.5309 13.3288 11.6851 12.9302C11.8334 12.5486 11.9348 12.1124 11.964 11.4738C11.9932 10.8338 12.0001 10.6295 12.0001 9.00001C12.0001 7.37052 11.9932 7.1661 11.964 6.52623C11.9348 5.88758 11.8334 5.45144 11.6851 5.0698C11.5344 4.66945 11.2983 4.30678 10.993 4.00708C10.6933 3.7018 10.3306 3.46557 9.93025 3.31489C9.54858 3.16667 9.11245 3.06526 8.47379 3.03623C7.83392 3.00691 7.62953 3 6.00001 3H6.00006Z" fill="#989898"/>
<path d="M6.00001 5.91892C5.39063 5.91892 4.79493 6.09962 4.28825 6.43818C3.78157 6.77673 3.38665 7.25793 3.15345 7.82093C2.92025 8.38393 2.85924 9.00343 2.97812 9.6011C3.09701 10.1988 3.39045 10.7478 3.82135 11.1787C4.25225 11.6096 4.80125 11.903 5.39892 12.0219C5.99659 12.1408 6.6161 12.0798 7.17909 11.8466C7.74209 11.6134 8.22329 11.2185 8.56185 10.7118C8.9004 10.2051 9.0811 9.6094 9.0811 9.00001C9.0811 8.18286 8.75649 7.39917 8.17867 6.82135C7.60086 6.24354 6.81717 5.91892 6.00001 5.91892ZM6.00001 11C5.60445 11 5.21778 10.8827 4.88888 10.6629C4.55999 10.4432 4.30365 10.1308 4.15228 9.76536C4.00091 9.39991 3.96131 8.99778 4.03848 8.60982C4.11565 8.22186 4.30613 7.8655 4.58584 7.5858C4.86554 7.3061 5.22191 7.11562 5.60987 7.03845C5.99782 6.96128 6.39995 7.00089 6.7654 7.15227C7.13085 7.30364 7.44321 7.55999 7.66297 7.88888C7.88273 8.21778 8.00002 8.60445 8.00002 9.00001C8.00002 9.53044 7.7893 10.0391 7.41423 10.4142C7.03915 10.7893 6.53044 11 6.00001 11Z" fill="#989898"/>
<path d="M9.20283 6.51718C9.60047 6.51718 9.92282 6.19483 9.92282 5.79719C9.92282 5.39955 9.60047 5.0772 9.20283 5.0772C8.80519 5.0772 8.48284 5.39955 8.48284 5.79719C8.48284 6.19483 8.80519 6.51718 9.20283 6.51718Z" fill="#989898"/>
</svg>
