<svg width="15" height="15" viewBox="0 0 15 15" fill="none" xmlns="http://www.w3.org/2000/svg">
<path d="M7.50002 1.35138C9.50261 1.35138 9.7398 1.35903 10.5307 1.39511C11.262 1.42849 11.6591 1.55064 11.9234 1.65335C12.2491 1.77358 12.5438 1.96529 12.7857 2.21439C13.0348 2.45631 13.2265 2.75098 13.3468 3.07674C13.4495 3.34102 13.5717 3.73814 13.605 4.46939C13.6411 5.26026 13.6487 5.49745 13.6487 7.5001C13.6487 9.50276 13.6411 9.73989 13.605 10.5308C13.5716 11.2621 13.4495 11.6592 13.3468 11.9235C13.222 12.2469 13.0309 12.5407 12.7857 12.7858C12.5406 13.031 12.2468 13.2221 11.9234 13.3469C11.6591 13.4496 11.262 13.5718 10.5307 13.6051C9.74001 13.6412 9.50282 13.6488 7.50002 13.6488C5.49721 13.6488 5.26011 13.6412 4.4693 13.6051C3.73805 13.5717 3.34096 13.4495 3.07666 13.3469C2.75089 13.2266 2.45622 13.0349 2.2143 12.7858C1.9652 12.5439 1.77349 12.2492 1.65326 11.9235C1.55055 11.6592 1.42837 11.2621 1.39502 10.5308C1.35894 9.73998 1.35129 9.50276 1.35129 7.5001C1.35129 5.49745 1.35894 5.26032 1.39502 4.46939C1.4284 3.73814 1.55055 3.34105 1.65326 3.07674C1.77351 2.75097 1.96524 2.45628 2.21436 2.21436C2.45628 1.96526 2.75096 1.77355 3.07671 1.65332C3.34099 1.55061 3.73811 1.42843 4.46936 1.39508C5.26023 1.359 5.49742 1.35135 7.50008 1.35135M7.50008 0C5.46318 0 5.20768 0.00863367 4.40785 0.0451333C3.60953 0.0815733 3.06436 0.20834 2.5873 0.393755C2.08687 0.582077 1.63353 0.877294 1.25891 1.25882C0.877298 1.63342 0.581998 2.08676 0.393606 2.58721C0.20834 3.0643 0.0815734 3.60947 0.0452821 4.40779C0.00863368 5.20763 0 5.46312 0 7.50001C0 9.53691 0.00863368 9.7924 0.0452821 10.5922C0.0817222 11.3906 0.208488 11.9357 0.393904 12.4128C0.582227 12.9132 0.877444 13.3666 1.25897 13.7412C1.63359 14.1227 2.08693 14.4179 2.58736 14.6062C3.06445 14.7917 3.60962 14.9184 4.40791 14.9549C5.20786 14.9914 5.46327 15 7.50013 15C9.537 15 9.79252 14.9914 10.5924 14.9549C11.3907 14.9184 11.9358 14.7917 12.4129 14.6062C12.9111 14.4136 13.3636 14.1189 13.7413 13.7412C14.119 13.3635 14.4137 12.911 14.6064 12.4128C14.7918 11.9357 14.9185 11.3905 14.955 10.5922C14.9915 9.79229 15.0001 9.53688 15.0001 7.50001C15.0001 5.46315 14.9915 5.20763 14.955 4.40779C14.9185 3.60947 14.7918 3.0643 14.6064 2.58724C14.418 2.08681 14.1228 1.63347 13.7413 1.25885C13.3667 0.877248 12.9133 0.581968 12.4128 0.393606C11.9357 0.208339 11.3906 0.0815733 10.5922 0.0452821C9.7924 0.00863367 9.53691 0 7.50002 0H7.50008Z" fill="#ECECEC"/>
<path d="M7.50001 3.64865C6.73829 3.64865 5.99366 3.87453 5.36031 4.29772C4.72696 4.72092 4.23332 5.32242 3.94182 6.02616C3.65032 6.72991 3.57405 7.50429 3.72265 8.25138C3.87126 8.99847 4.23807 9.68472 4.77669 10.2233C5.31531 10.762 6.00156 11.1288 6.74865 11.2774C7.49574 11.426 8.27012 11.3497 8.97387 11.0582C9.67761 10.7667 10.2791 10.2731 10.7023 9.63972C11.1255 9.00636 11.3514 8.26174 11.3514 7.50002C11.3514 6.47857 10.9456 5.49896 10.2233 4.77669C9.50107 4.05442 8.52146 3.64865 7.50001 3.64865ZM7.50001 10C7.00556 9.99999 6.52222 9.85337 6.1111 9.57866C5.69999 9.30396 5.37956 8.91351 5.19035 8.4567C5.00114 7.99988 4.95163 7.49722 5.0481 7.01227C5.14456 6.52733 5.38267 6.08187 5.7323 5.73225C6.08193 5.38262 6.52738 5.14452 7.01233 5.04806C7.49728 4.9516 7.99994 5.00111 8.45675 5.19033C8.91356 5.37955 9.30401 5.69998 9.57871 6.1111C9.85341 6.52222 10 7.00557 10 7.50002C10 8.16306 9.73662 8.79894 9.26778 9.26777C8.79894 9.73661 8.16305 10 7.50001 10Z" fill="#ECECEC"/>
<path d="M11.5035 4.39648C12.0006 4.39648 12.4035 3.99354 12.4035 3.49649C12.4035 2.99944 12.0006 2.5965 11.5035 2.5965C11.0065 2.5965 10.6036 2.99944 10.6036 3.49649C10.6036 3.99354 11.0065 4.39648 11.5035 4.39648Z" fill="#ECECEC"/>
</svg>
