<svg width="16" height="15" viewBox="0 0 16 15" fill="none" xmlns="http://www.w3.org/2000/svg">
<path d="M15.3306 13.9417L11.603 10.2141C12.6188 8.97176 13.1182 7.38649 12.998 5.78623C12.8778 4.18596 12.1471 2.69312 10.957 1.6165C9.76698 0.539881 8.20865 -0.0381557 6.60438 0.00195626C5.0001 0.0420682 3.47262 0.697259 2.33787 1.83201C1.20312 2.96676 0.547928 4.49424 0.507816 6.09852C0.467704 7.7028 1.04574 9.26112 2.12236 10.4512C3.19898 11.6412 4.69182 12.3719 6.29209 12.4921C7.89235 12.6124 9.47761 12.1129 10.72 11.0971L14.4475 14.8247C14.5653 14.9385 14.7231 15.0014 14.8868 15C15.0505 14.9986 15.2072 14.9329 15.323 14.8171C15.4387 14.7013 15.5044 14.5447 15.5058 14.3809C15.5073 14.2172 15.4443 14.0595 15.3306 13.9417ZM6.77072 11.2608C5.78262 11.2608 4.81672 10.9677 3.99515 10.4188C3.17358 9.86984 2.53324 9.08958 2.15511 8.1767C1.77698 7.26382 1.67805 6.25932 1.87082 5.29021C2.06358 4.3211 2.5394 3.43091 3.23809 2.73223C3.93677 2.03354 4.82696 1.55772 5.79607 1.36496C6.76517 1.17219 7.76968 1.27112 8.68256 1.64925C9.59544 2.02738 10.3757 2.66772 10.9247 3.48929C11.4736 4.31086 11.7666 5.27676 11.7666 6.26486C11.7651 7.58939 11.2383 8.85926 10.3017 9.79585C9.36512 10.7324 8.09525 11.2593 6.77072 11.2608Z" fill="#ECECEC"/>
</svg>
