<svg width="18" height="15" viewBox="0 0 18 15" fill="none" xmlns="http://www.w3.org/2000/svg">
<path d="M16.6768 0.0991821L0.834902 6.20945C-0.246336 6.64326 -0.239924 7.24633 0.637821 7.51524L4.58885 8.74844L6.1006 13.3834C6.28439 13.8907 6.19379 14.0919 6.7265 14.0919C7.1376 14.0919 7.31997 13.9044 7.54894 13.6808C7.69454 13.5383 8.55905 12.6978 9.52434 11.7592L13.6341 14.7958C14.3904 15.213 14.9365 14.9968 15.1248 14.0934L17.8226 1.38044C18.0988 0.273084 17.4004 -0.229207 16.6768 0.0991821ZM5.20892 8.46511L14.1146 2.84649C14.5591 2.57687 14.9668 2.72183 14.6321 3.01892L7.00653 9.8991L6.70962 13.0659L5.20892 8.46511Z" fill="#ECECEC"/>
</svg>
