<svg width="15" height="15" viewBox="0 0 15 15" fill="none" xmlns="http://www.w3.org/2000/svg">
<mask id="mask0_41_171" style="mask-type:luminance" maskUnits="userSpaceOnUse" x="0" y="0" width="15" height="15">
<path d="M15 0H0V15H15V0Z" fill="white"/>
</mask>
<g mask="url(#mask0_41_171)">
<path fill-rule="evenodd" clip-rule="evenodd" d="M1.05442 1.05442C0 2.10884 0 3.80589 0 7.2V7.8C0 11.1941 0 12.8912 1.05442 13.9456C2.10884 15 3.80589 15 7.2 15H7.8C11.1941 15 12.8912 15 13.9456 13.9456C15 12.8912 15 11.1941 15 7.8V7.2C15 3.80589 15 2.10884 13.9456 1.05442C12.8912 0 11.1941 0 7.8 0H7.2C3.80589 0 2.10884 0 1.05442 1.05442ZM2.53128 4.56254C2.61252 8.46254 4.56251 10.8063 7.98126 10.8063H8.17505V8.57502C9.4313 8.70002 10.3812 9.61878 10.7625 10.8063H12.5375C12.05 9.03128 10.7687 8.05002 9.96872 7.67502C10.7687 7.21253 11.8937 6.08753 12.1625 4.56254H10.5499C10.1999 5.80004 9.16254 6.92502 8.17505 7.03127V4.56254H6.56249V8.88752C5.5625 8.63753 4.30002 7.42503 4.24377 4.56254H2.53128Z" fill="#ECECEC"/>
</g>
</svg>
